<?xml version="1.0" encoding="utf-8"?>
<svg version="1.1" xmlns="http://www.w3.org/2000/svg" xmlns:xlink="http://www.w3.org/1999/xlink" viewBox="0 0 1000 400">
<defs>
  <pattern id="grid" patternUnits="userSpaceOnUse" x="0" y="0" width="50" height="50" viewBox="0 0 50 50">
      <rect x="0" y="0" width="50" height="50" fill="none" stroke-width="1" stroke="#7f8c8d" stroke-opacity="0.25" />
    </pattern>
</defs>
<g>
  <rect x="0" y="0" width="1000" height="400" fill="url(#grid)" />
</g>
<g>
  <line x1="50" y1="0" x2="50" y2="400" fill="none" stroke="#7f8c8d" stroke-width="2" />
  <line x1="0" y1="350" x2="1000" y2="350" fill="none" stroke="#7f8c8d" stroke-width="2" />
  <text x="970" y="390" fill="#7f8c8d" font-family="Helvetica, Arial" font-style="italic" font-size="40">t</text>
</g>
<g>
  <path fill="none" stroke-width="7" stroke="#2980b9" d="M50,200 C100,0 350,100 550,200 S700,300 900,300" />
  <path fill="none" stroke-width="7" stroke="#c0392b" d="M50,300 C200,0 450,220 550,100 S600,350 900,350" />
</g>
<!-- <g>
  <line x1="275" y1="250" x2="275" y2="750" fill="none" stroke="#ffffff" stroke-width="50" />
  <line x1="500" y1="250" x2="500" y2="750" fill="none" stroke="#ffffff" stroke-width="50" />
  <line x1="725" y1="250" x2="725" y2="750" fill="none" stroke="#ffffff" stroke-width="50" />
</g>
<g>
  <circle cx="275" cy="500" r="75" fill="#ffffff" />
  <circle cx="500" cy="400" r="75" fill="#ffffff" />
  <circle cx="725" cy="600" r="75" fill="#ffffff" />
</g>
 -->
</svg>
